<svg xmlns="http://www.w3.org/2000/svg" viewBox="533 55 753 784.585"><defs><style>.a{fill:#a07d1c;stroke:#4e4e4e;stroke-width:5px;}.b{fill:#c3a369;}.c{fill:#505050;}.d{fill:#727272;}.e,.g{fill:none;}.e{stroke:#fff;stroke-width:90px;}.f{stroke:none;}</style></defs><g class="a" transform="translate(770.11 381.842) rotate(30)"><rect class="f" width="233" height="230" rx="9"/><rect class="g" x="2.5" y="2.5" width="228" height="225" rx="6.5"/></g><g class="a" transform="matrix(0.966, -0.259, 0.259, 0.966, 678.117, 549.177)"><rect class="f" width="269" height="46" rx="9"/><rect class="g" x="2.5" y="2.5" width="264" height="41" rx="6.5"/></g><g class="a" transform="translate(680.108 541.831) rotate(30)"><rect class="f" width="231" height="46" rx="9"/><rect class="g" x="2.5" y="2.5" width="226" height="41" rx="6.5"/></g><g class="a" transform="translate(771.108 382.831) rotate(30)"><rect class="f" width="231" height="46" rx="9"/><rect class="g" x="2.5" y="2.5" width="226" height="41" rx="6.5"/></g><g transform="translate(2132.17 -260.85) rotate(30)"><rect class="b" width="48" height="516" rx="9" transform="translate(-624 980)"/><rect class="b" width="286" height="51" transform="translate(-862 1470)"/><rect class="b" width="34" height="262" transform="matrix(0.819, -0.574, 0.574, 0.819, -626.087, 1216.593)"/><circle class="c" cx="113" cy="113" r="113" transform="translate(-708.285 1323.12)"/><circle class="d" cx="72" cy="72" r="72" transform="translate(-667.285 1364.12)"/></g><g class="e" transform="translate(623 145)"><circle class="f" cx="286.5" cy="286.5" r="286.5"/><circle class="g" cx="286.5" cy="286.5" r="331.5"/></g></svg>