<svg xmlns="http://www.w3.org/2000/svg" viewBox="833.466 413.467 253.068 253.067"><defs><style>.a{fill:#fff;}.b,.c{stroke:none;}.c{fill:#707070;}</style></defs><g class="a" transform="translate(812.146 392.146)"><path class="b" d="M 147.8096923828125 269.3878479003906 C 147.8096618652344 269.3878479003906 147.8096618652344 269.3878479003906 147.8096618652344 269.3878479003906 C 141.6959228515625 269.387939453125 135.5288696289062 268.916259765625 129.4797973632812 267.9857788085938 L 123.8956604003906 267.1268920898438 L 125.427131652832 261.6886291503906 C 126.9404983520508 256.3144836425781 126.4326934814453 250.5667419433594 123.997200012207 245.5042114257812 C 122.7962265014648 243.0076446533203 121.1784286499023 240.7749481201172 119.1887664794922 238.8680419921875 C 117.130126953125 236.8950805664062 114.7367324829102 235.3359832763672 112.0750961303711 234.2340545654297 C 109.4123306274414 233.130615234375 106.617431640625 232.5407409667969 103.7664947509766 232.4802093505859 C 103.6049957275391 232.4767456054688 103.4404602050781 232.4750213623047 103.2764282226562 232.4750213623047 C 100.691032409668 232.4750213623047 98.13299560546875 232.9116516113281 95.67343139648438 233.7727813720703 C 90.37362670898438 235.6290130615234 85.95009613037109 239.3344116210938 83.21826171875 244.2062072753906 L 80.45536041259766 249.1334533691406 L 75.90009307861328 245.7925872802734 C 66.02649688720703 238.5511779785156 57.32939529418945 229.8647155761719 50.05043029785156 219.9744415283203 L 46.25466156005859 214.8169555664062 L 52.17873001098633 212.38525390625 C 53.54899597167969 211.82275390625 54.87026214599609 211.1260528564453 56.10583114624023 210.3144073486328 C 57.35052871704102 209.4966430664062 58.5193977355957 208.5540771484375 59.57966232299805 207.5129547119141 C 60.65876388549805 206.4538421630859 61.63519668579102 205.2827758789062 62.48259735107422 204.0315551757812 C 63.35409545898438 202.7453460693359 64.10112762451172 201.3567199707031 64.70355987548828 199.9032745361328 C 65.89239501953125 197.0322113037109 66.48393249511719 194.0164794921875 66.46102905273438 190.941650390625 C 66.44999694824219 189.4615783691406 66.29383087158203 187.9744873046875 65.99696350097656 186.5217437744141 C 65.70243072509766 185.080322265625 65.26696014404297 183.6582183837891 64.70259857177734 182.2947082519531 C 64.13859558105469 180.9336547851562 63.44132995605469 179.6211090087891 62.63089752197266 178.3954162597656 C 61.81029510498047 177.1538543701172 60.86929702758789 175.9916534423828 59.83346176147461 174.9403533935547 C 57.67586517333984 172.7502136230469 55.12506484985352 171.0362091064453 52.25176239013672 169.8457183837891 C 50.80269622802734 169.2451477050781 49.29316329956055 168.7916412353516 47.76446151733398 168.4976196289062 C 46.34876251220703 168.2251739501953 44.89656448364258 168.0870819091797 43.44779586791992 168.0870819091797 C 43.38066482543945 168.0870819091797 43.31369781494141 168.0873413085938 43.24659729003906 168.0879211425781 C 41.7626953125 168.1019439697266 40.26932907104492 168.2620544433594 38.81212997436523 168.5638122558594 C 37.36266326904297 168.8639526367188 35.93642807006836 169.3053741455078 34.57292938232422 169.8758850097656 L 28.66326332092285 172.3486175537109 L 27.69986343383789 166.0153198242188 C 25.85336303710938 153.8765869140625 25.8607292175293 141.5843505859375 27.72176361083984 129.4800872802734 L 28.58036422729492 123.8955841064453 L 34.01899719238281 125.427116394043 C 36.03393173217773 125.994514465332 38.11749649047852 126.2822113037109 40.21179580688477 126.2822113037109 C 43.64162826538086 126.2822113037109 47.09699630737305 125.4920806884766 50.20433044433594 123.997184753418 C 52.70013046264648 122.7962493896484 54.93269729614258 121.1784133911133 56.83963012695312 119.1887512207031 C 58.81176376342773 117.1309509277344 60.37139511108398 114.7370452880859 61.47509765625 112.0735778808594 C 62.57776260375977 109.4108810424805 63.16779708862305 106.6156158447266 63.22832870483398 103.7664184570312 C 63.28669738769531 101.0115814208984 62.8516960144043 98.2891845703125 61.93546295166016 95.67511749267578 C 60.07843017578125 90.37308502197266 56.37313079833984 85.94961547851562 51.50173187255859 83.21844482421875 L 46.57366180419922 80.45551300048828 L 49.91522979736328 75.89987945556641 C 57.15879821777344 66.02458190917969 65.84549713134766 57.3272819519043 75.73406219482422 50.0495491027832 L 80.89249420166016 46.25308227539062 L 83.32359313964844 52.17868041992188 C 83.88572692871094 53.54881286621094 84.58236694335938 54.87008285522461 85.39412689208984 56.10581588745117 C 86.21139526367188 57.34988021850586 87.15409851074219 58.51918029785156 88.19599914550781 59.58108139038086 C 89.253662109375 60.65788269042969 90.42566680908203 61.63488006591797 91.67756652832031 62.48301315307617 C 92.96309661865234 63.35408020019531 94.35173034667969 64.10111236572266 95.80522918701172 64.70358276367188 C 98.62213134765625 65.86994934082031 101.5798645019531 66.46171569824219 104.5945281982422 66.46171569824219 C 104.6517639160156 66.46171569824219 104.7087631225586 66.46147918701172 104.7660293579102 66.46104431152344 C 106.2464294433594 66.44998168945312 107.7332611083984 66.29384613037109 109.1858596801758 65.99697875976562 C 110.6280975341797 65.70244598388672 112.0497665405273 65.26711273193359 113.4120941162109 64.70294952392578 C 114.7716598510742 64.13991546630859 116.0847320556641 63.44241333007812 117.3147659301758 62.62981414794922 C 118.5528335571289 61.81154632568359 119.714729309082 60.87051391601562 120.7672958374023 59.83344650268555 C 122.9587326049805 57.67378234863281 124.6732330322266 55.1228141784668 125.86279296875 52.25178146362305 C 126.4637298583984 50.80021286010742 126.9174957275391 49.29004669189453 127.2108993530273 47.76454925537109 C 127.4962310791016 46.28188323974609 127.6337280273438 44.76314926147461 127.6196975708008 43.24994659423828 C 127.6064300537109 41.76618194580078 127.4464645385742 40.27284622192383 127.1441955566406 38.809814453125 C 126.8451309204102 37.36544799804688 126.4033966064453 35.93928146362305 125.8317337036133 34.57304763793945 L 123.3588333129883 28.66328048706055 L 129.6922607421875 27.69988059997559 C 135.7089691162109 26.78464889526367 141.8351593017578 26.32058143615723 147.9006652832031 26.32058143615723 C 154.0142669677734 26.32058143615723 160.1806030273438 26.79201507568359 166.2283630371094 27.72178077697754 L 171.8130035400391 28.58034896850586 L 170.2814025878906 34.01904678344727 C 168.7675628662109 39.39458084106445 169.2752685546875 45.14201354980469 171.7109375 50.20257949829102 C 172.9129028320312 52.7012825012207 174.5304260253906 54.93374633789062 176.5190582275391 56.83891296386719 C 178.5769348144531 58.81181335449219 180.9703369140625 60.37124633789062 183.6340942382812 61.47514724731445 C 186.2958374023438 62.57707977294922 189.0912933349609 63.1668815612793 191.9412231445312 63.22744750976562 C 192.1064300537109 63.23097991943359 192.2731018066406 63.23278045654297 192.4377593994141 63.23278045654297 C 195.0211639404297 63.23278045654297 197.5768585205078 62.79624938964844 200.0338592529297 61.9353141784668 C 205.335693359375 60.07808303833008 209.7588653564453 56.3729133605957 212.4889678955078 51.50221633911133 L 215.2515258789062 46.57354736328125 L 219.8076019287109 49.91511535644531 C 229.6818695068359 57.1572151184082 238.3792266845703 65.84397888183594 245.6580963134766 75.73408508300781 L 249.4545288085938 80.89251708984375 L 243.5289916992188 83.32361602783203 C 242.1573028564453 83.88638305664062 240.8368988037109 84.58261108398438 239.6044616699219 85.3929443359375 C 238.3585357666016 86.21147918701172 237.1892700195312 87.15418243408203 236.1275024414062 88.19598388671875 C 235.0499267578125 89.25364685058594 234.0730285644531 90.42524719238281 233.2246704101562 91.67758178710938 C 232.3523559570312 92.96601104736328 231.6055297851562 94.35451507568359 231.0057678222656 95.80324554443359 C 229.8159942626953 98.67494964599609 229.2245941162109 101.6903457641602 229.2474975585938 104.7669143676758 C 229.2585601806641 106.2465515136719 229.4147033691406 107.7333450317383 229.7115631103516 109.1857833862305 C 230.006103515625 110.6281814575195 230.4413909912109 112.0498123168945 231.0055236816406 113.4120483398438 C 231.5699615478516 114.7748184204102 232.26708984375 116.0873489379883 233.0775299072266 117.3129806518555 C 233.8951568603516 118.5511779785156 234.8358306884766 119.7124786376953 235.8750915527344 120.7673110961914 C 238.0341644287109 122.9588470458984 240.5846557617188 124.6731491088867 243.4559020996094 125.8628158569336 C 244.9080657958984 126.4636840820312 246.4188232421875 126.9175491333008 247.9440002441406 127.2109146118164 C 249.3599700927734 127.4826812744141 250.8092651367188 127.6206817626953 252.2498016357422 127.6206817626953 C 252.3191986083984 127.6206817626953 252.3885345458984 127.6203842163086 252.4579010009766 127.6197509765625 C 253.9432678222656 127.6064147949219 255.4353637695312 127.4463500976562 256.8949584960938 127.143913269043 C 258.3434753417969 126.8447113037109 259.7691650390625 126.403450012207 261.1354675292969 125.8317184448242 L 267.0452575683594 123.3587799072266 L 268.0086669921875 129.6922454833984 C 269.8551635742188 141.8310546875 269.8477783203125 154.1232757568359 267.9867248535156 166.2275543212891 L 267.1282348632812 171.8112182617188 L 261.690185546875 170.2807159423828 C 259.6747741699219 169.7134857177734 257.5909118652344 169.4258880615234 255.4964904785156 169.4258880615234 C 252.0664367675781 169.4258880615234 248.611328125 170.2160797119141 245.5047302246094 171.7110443115234 C 243.006591796875 172.9127807617188 240.77392578125 174.5302429199219 238.8680572509766 176.5188446044922 C 236.895263671875 178.5780792236328 235.3358612060547 180.9718475341797 234.2338562011719 183.6329498291016 C 233.1307983398438 186.2972412109375 232.5407257080078 189.0926818847656 232.4801940917969 191.9412536621094 C 232.4217987060547 194.6953887939453 232.8566589355469 197.4186096191406 233.7727355957031 200.0350494384766 C 235.6294250488281 205.3352508544922 239.3346557617188 209.7584533691406 244.2057037353516 212.4890747070312 L 249.1336669921875 215.2516174316406 L 245.792724609375 219.8073425292969 C 238.5518035888672 229.6812438964844 229.8652648925781 238.3786773681641 219.9744567871094 245.6580810546875 L 214.8161010742188 249.4545440673828 L 212.3849334716797 243.529052734375 C 211.8227691650391 242.1588745117188 211.1261291503906 240.8375549316406 210.3143920898438 239.6017761230469 C 209.4967346191406 238.35791015625 208.5538940429688 237.1889801025391 207.5129241943359 236.1287841796875 C 206.4561309814453 235.0513763427734 205.2847900390625 234.0746154785156 204.0296630859375 233.2237091064453 C 202.7449035644531 232.3532104492188 201.3569030761719 231.6067504882812 199.9052276611328 231.0057525634766 C 197.0877990722656 229.8384552001953 194.1305694580078 229.2468414306641 191.1144561767578 229.2468414306641 C 191.0569610595703 229.2468414306641 190.9998931884766 229.2470855712891 190.9423675537109 229.2475128173828 C 189.46142578125 229.258544921875 187.9743347167969 229.4146881103516 186.5217590332031 229.7115478515625 C 185.0786590576172 230.0064086914062 183.657470703125 230.4416198730469 182.29736328125 231.0051879882812 C 180.9343566894531 231.5696868896484 179.6212615966797 232.2669219970703 178.3937683105469 233.0778503417969 C 177.1579284667969 233.8946075439453 175.9953308105469 234.8363494873047 174.9391326904297 235.8763122558594 C 172.749755859375 238.0331115722656 171.0357666015625 240.5835876464844 169.845703125 243.4558868408203 C 169.24462890625 244.9085845947266 168.7907562255859 246.4190216064453 168.4976348876953 247.9430847167969 C 168.2124328613281 249.4255828857422 168.0746002197266 250.9455413818359 168.0879364013672 252.4609832763672 C 168.1019287109375 253.9424438476562 168.2621612548828 255.4361114501953 168.5641937255859 256.8972778320312 C 168.8641357421875 258.3459167480469 169.3056030273438 259.7724914550781 169.8759307861328 261.1356811523438 L 172.3485260009766 267.0453186035156 L 166.0152893066406 268.0086669921875 C 159.9995269775391 268.9237365722656 153.874267578125 269.3877868652344 147.8096618652344 269.3878479003906 L 147.8096923828125 269.3878479003906 Z M 147.8857269287109 84.57244873046875 C 141.7310943603516 84.57294464111328 135.6099243164062 85.47464752197266 129.6922912597656 87.25247955322266 C 123.8166961669922 89.01771545410156 118.2388305664062 91.61634826660156 113.1136932373047 94.97621154785156 C 102.4866333007812 101.9428176879883 94.28852844238281 111.8559494018555 89.40566253662109 123.6438827514648 C 86.13666534423828 131.536376953125 84.51109313964844 139.830322265625 84.57419586181641 148.2951202392578 C 84.60453033447266 152.3641815185547 85.03396606445312 156.4548492431641 85.85056304931641 160.4534149169922 C 86.65975952148438 164.4155883789062 87.85599517822266 168.3220520019531 89.40602874755859 172.0642852783203 C 90.95596313476562 175.8062133789062 92.87236022949219 179.4143218994141 95.10196685791016 182.7883148193359 C 97.35206604003906 186.1933135986328 99.94089508056641 189.3894500732422 102.7965621948242 192.2879180908203 C 108.7374649047852 198.3179168701172 115.7514953613281 203.0329132080078 123.6437606811523 206.3019409179688 C 131.3887023925781 209.509521484375 139.525390625 211.1359100341797 147.8276977539062 211.1359100341797 C 153.9791564941406 211.1355133056641 160.0988616943359 210.2338409423828 166.0164642333984 208.4559478759766 C 171.8918304443359 206.6907806396484 177.4695587158203 204.0921173095703 182.5947570800781 200.7321166992188 C 193.2213592529297 193.765380859375 201.419189453125 183.85205078125 206.3019256591797 172.0638122558594 C 209.5711975097656 164.17138671875 211.1968994140625 155.877685546875 211.1339263916016 147.4129791259766 C 211.1036682128906 143.3442077636719 210.6742706298828 139.2536163330078 209.8576354980469 135.2547760009766 C 209.0484924316406 131.2926177978516 207.852294921875 127.3861846923828 206.3022613525391 123.6439819335938 C 204.7522583007812 119.9020156860352 202.8358612060547 116.2939147949219 200.6062622070312 112.9199447631836 C 198.3560028076172 109.5147476196289 195.7671661376953 106.3185806274414 192.9115905761719 103.4202117919922 C 186.970703125 97.39014434814453 179.9564666748047 92.67501831054688 172.0637664794922 89.40571594238281 C 164.3209686279297 86.19857788085938 156.1865692138672 84.57244873046875 147.8865356445312 84.57244873046875 L 147.8857269287109 84.57244873046875 Z"/><path class="c" d="M 147.8095703125 264.3878784179688 C 153.62060546875 264.3877868652344 159.4926910400391 263.943359375 165.2634124755859 263.0655517578125 C 164.5696868896484 261.407470703125 164.0328063964844 259.6726989746094 163.667724609375 257.9093627929688 C 163.3001861572266 256.1314392089844 163.105224609375 254.3130950927734 163.0881042480469 252.5049438476562 C 163.0718841552734 250.6586761474609 163.2399597167969 248.8060913085938 163.5876159667969 246.9987030029297 C 163.9443359375 245.1439361572266 164.4957580566406 243.3080596923828 165.2265014648438 241.5420227050781 C 166.6740264892578 238.0483245849609 168.7615661621094 234.943359375 171.4311065673828 232.3134460449219 C 172.7169952392578 231.04736328125 174.1323394775391 229.9009857177734 175.6377258300781 228.9060211181641 C 177.1307220458984 227.9197082519531 178.7273712158203 227.0718231201172 180.3834228515625 226.3860168457031 C 182.0375366210938 225.7005920410156 183.7659149169922 225.1713256835938 185.5205688476562 224.8128204345703 C 187.2895660400391 224.4512939453125 189.1009521484375 224.2611389160156 190.9044189453125 224.2476348876953 C 190.9746551513672 224.2471008300781 191.0442962646484 224.246826171875 191.1144561767578 224.246826171875 C 194.7907257080078 224.246826171875 198.3917999267578 224.966552734375 201.8178405761719 226.3860168457031 C 203.5815734863281 227.1162109375 205.2696838378906 228.0242919921875 206.8353424072266 229.0850524902344 C 208.364990234375 230.1221008300781 209.7933349609375 231.3133239746094 211.0806121826172 232.6257171630859 C 212.3485717773438 233.9170532226562 213.4968414306641 235.3405609130859 214.4934234619141 236.8566284179688 C 215.481689453125 238.3610992431641 216.3280639648438 239.9673309326172 217.0107269287109 241.6311340332031 C 226.4918365478516 234.6532897949219 234.8190307617188 226.3163604736328 241.7607269287109 216.8505249023438 C 235.8263854980469 213.5237884521484 231.3135681152344 208.138671875 229.0536041259766 201.6872863769531 C 227.9392242431641 198.5042877197266 227.4101867675781 195.1895141601562 227.4813385009766 191.8350219726562 C 227.5550689697266 188.3635101318359 228.2727203369141 184.9603271484375 229.6143035888672 181.7199401855469 C 230.9547576904297 178.4829711914062 232.8536529541016 175.569091796875 235.2582244873047 173.0592041015625 C 237.5797271728516 170.6369018554688 240.2976837158203 168.6674346923828 243.3366088867188 167.2055969238281 C 247.1155395507812 165.3870544433594 251.3203735351562 164.4258575439453 255.4964904785156 164.4258575439453 C 258.0502014160156 164.4258575439453 260.5893859863281 164.7766723632812 263.0447998046875 165.4677124023438 C 264.8285217285156 153.8663177490234 264.8359680175781 142.0829467773438 263.0655212402344 130.4441680908203 C 261.4034118652344 131.1397094726562 259.6686401367188 131.6765594482422 257.909423828125 132.0399017333984 C 256.1314697265625 132.4083251953125 254.3131103515625 132.6032867431641 252.5049133300781 132.6195220947266 C 252.4198760986328 132.6202850341797 252.3348846435547 132.6206665039062 252.2498016357422 132.6206665039062 C 250.49365234375 132.6206665039062 248.7272186279297 132.4525146484375 246.9996032714844 132.1209411621094 C 245.1436462402344 131.7639465332031 243.3074493408203 131.2125244140625 241.5419921875 130.4820098876953 C 238.0493469238281 129.0348663330078 234.9443817138672 126.9470520019531 232.3134155273438 124.2765197753906 C 231.0471038818359 122.9912490844727 229.9010009765625 121.5762100219727 228.9069213867188 120.0708236694336 C 227.9205322265625 118.5791320800781 227.0723724365234 116.9824371337891 226.3860015869141 115.3251342773438 C 225.7001495361328 113.6690139770508 225.1708374023438 111.9403228759766 224.8128356933594 110.1870193481445 C 224.4513092041016 108.4181289672852 224.2611083984375 106.6070556640625 224.2476043701172 104.8040924072266 C 224.2197265625 101.0545959472656 224.9391937255859 97.38282775878906 226.3860015869141 93.89070892333984 C 227.1147613525391 92.13036346435547 228.0228729248047 90.44220733642578 229.0851135253906 88.87320709228516 C 230.1195678710938 87.34628295898438 231.3107604980469 85.91767120361328 232.625732421875 84.62701416015625 C 233.9186553955078 83.35843658447266 235.3424224853516 82.21047973632812 236.8574981689453 81.21513366699219 C 238.3591461181641 80.227783203125 239.9651031494141 79.38132476806641 241.631103515625 78.69782257080078 C 234.65380859375 69.21739959716797 226.3168792724609 60.88990020751953 216.8505401611328 53.94694137573242 C 213.5243377685547 59.88109588623047 208.1392669677734 64.39385986328125 201.6873016357422 66.65401458740234 C 198.6975708007812 67.70159149169922 195.5856170654297 68.2327880859375 192.4377593994141 68.2327880859375 C 192.2378387451172 68.2327880859375 192.0350646972656 68.2305908203125 191.8349914550781 68.22628784179688 C 188.3621063232422 68.15251922607422 184.9588775634766 67.43517303466797 181.7199096679688 66.09420776367188 C 178.4802703857422 64.751708984375 175.5666809082031 62.85251617431641 173.0601043701172 60.44944000244141 C 170.637451171875 58.12840270996094 168.6676788330078 55.41043853759766 167.20556640625 52.37101745605469 C 164.2408752441406 46.21120834350586 163.6242980957031 39.21278762817383 165.4685668945312 32.6637077331543 C 159.6714630126953 31.7724781036377 153.7607574462891 31.32059478759766 147.9006500244141 31.32059478759766 C 142.0888366699219 31.32059478759766 136.2159118652344 31.76505661010742 130.4441833496094 32.64301681518555 C 131.1392974853516 34.30417251586914 131.6764526367188 36.03863143920898 132.0408020019531 37.79821014404297 C 132.4086151123047 39.57870864868164 132.6033020019531 41.39732360839844 132.6194915771484 43.20359420776367 C 132.6366119384766 45.04855728149414 132.4688415527344 46.90082550048828 132.1209106445312 48.70893859863281 C 131.7638397216797 50.56540298461914 131.2124176025391 52.40132522583008 130.4819946289062 54.16563415527344 C 129.0350646972656 57.6578254699707 126.947265625 60.76309585571289 124.276496887207 63.39513397216797 C 122.9939575195312 64.65874481201172 121.5789566040039 65.80486297607422 120.07080078125 66.8016357421875 C 118.5753021240234 67.78959655761719 116.9786071777344 68.63774871826172 115.3251113891602 69.32251739501953 C 113.6688766479492 70.00839996337891 111.9401473999023 70.53771209716797 110.1869964599609 70.89570617675781 C 108.4179534912109 71.25724792480469 106.6068801879883 71.44744110107422 104.8041076660156 71.4609375 C 104.7341079711914 71.46144104003906 104.6644592285156 71.46170806884766 104.5945358276367 71.46170806884766 C 100.9201126098633 71.46170806884766 97.31884002685547 70.74198150634766 93.89068603515625 69.32251739501953 C 92.12564849853516 68.59090423583984 90.43749237060547 67.68247985839844 88.87322235107422 66.62252044677734 C 87.34714508056641 65.58866882324219 85.91853332519531 64.39775085449219 84.62699127197266 63.08282470703125 C 83.35841369628906 61.78986358642578 82.21045684814453 60.36609268188477 81.21511077880859 58.85101699829102 C 80.22691345214844 57.34671020507812 79.38045501708984 55.740478515625 78.69779968261719 54.07651901245117 C 69.21884155273438 61.05274963378906 60.89133834838867 69.38967132568359 53.94691848754883 78.85713195800781 C 59.88161087036133 82.18444061279297 64.39437866210938 87.56982421875 66.65399169921875 94.02120971679688 C 67.76899719238281 97.20232391357422 68.29830169677734 100.5168228149414 68.22722625732422 103.8726348876953 C 68.15341949462891 107.3449783325195 67.43576049804688 110.7482070922852 66.09422302246094 113.9877090454102 C 64.75199127197266 117.2267074584961 62.85284042358398 120.1405944824219 60.44941711425781 122.6484375 C 58.12703323364258 125.0715560913086 55.40937805175781 127.0413284301758 52.37191772460938 128.5029449462891 C 48.59233856201172 130.3211669921875 44.38745498657227 131.2822113037109 40.2118034362793 131.2822113037109 C 37.65795516967773 131.2822113037109 35.11883926391602 130.9312896728516 32.66372299194336 130.2399444580078 C 30.8799934387207 141.8412933349609 30.87257194519043 153.6245880126953 32.64299392700195 165.2633666992188 C 34.30141830444336 164.5694732666016 36.0358772277832 164.0326385498047 37.79822540283203 163.6677093505859 C 39.57280349731445 163.3002166748047 41.39145660400391 163.1052093505859 43.20360946655273 163.0880889892578 C 43.28507232666016 163.08740234375 43.36634063720703 163.0870513916016 43.44780349731445 163.0870513916016 C 45.2128791809082 163.0870513916016 46.98299407958984 163.2554779052734 48.70891571044922 163.5876007080078 C 50.56941604614258 163.9454803466797 52.40530014038086 164.4969024658203 54.16561126708984 165.2265167236328 C 57.66033935546875 166.6744842529297 60.76560974121094 168.7620239257812 63.39511108398438 171.4311370849609 C 64.65749359130859 172.7123260498047 65.80357360839844 174.1276397705078 66.80161285400391 175.6377105712891 C 67.78768920898438 177.1289825439453 68.63580322265625 178.7253570556641 69.32249450683594 180.3825225830078 C 70.00837707519531 182.0396728515625 70.53768920898438 183.7683563232422 70.89572143554688 185.5205993652344 C 71.25722503662109 187.2896728515625 71.44741821289062 189.1010589599609 71.46091461181641 190.9044342041016 C 71.48880004882812 194.6518707275391 70.76934051513672 198.3236694335938 69.32249450683594 201.8178253173828 C 68.59095764160156 203.5827789306641 67.68253326416016 205.2709045410156 66.62249755859375 206.8353576660156 C 65.58888244628906 208.3614807128906 64.39795684814453 209.7898254394531 63.08280181884766 211.0806274414062 C 61.79095458984375 212.3490905761719 60.36714935302734 213.4973297119141 58.85099411010742 214.4934387207031 C 57.34699249267578 215.4813690185547 55.74106979370117 216.3278198242188 54.07741546630859 217.0107116699219 C 61.05484008789062 226.4912872314453 69.39145660400391 234.8184814453125 78.85710906982422 241.7607116699219 C 82.18511199951172 235.8258209228516 87.57049560546875 231.3130187988281 94.02118682861328 229.0536346435547 C 97.01306915283203 228.0061340332031 100.1269912719727 227.4750213623047 103.2764205932617 227.4750213623047 C 103.4745712280273 227.4750213623047 103.6751861572266 227.4771270751953 103.8726119995117 227.4813232421875 C 107.3470687866211 227.5550994873047 110.7503051757812 228.2727508544922 113.9876861572266 229.6143188476562 C 117.2255706787109 230.9548187255859 120.1394577026367 232.8536682128906 122.6484146118164 235.2582550048828 C 125.0718383789062 237.5808258056641 127.0415725708008 240.2987823486328 128.5029144287109 243.3366394042969 C 131.4671020507812 249.4981689453125 132.0837249755859 256.49658203125 130.2399139404297 263.0439147949219 C 136.0382232666016 263.935791015625 141.9495391845703 264.387939453125 147.8095703125 264.3878784179688 M 147.8853454589844 79.57144165039062 L 147.8865356445312 79.57244110107422 C 156.8464508056641 79.57244110107422 165.6246490478516 81.32666778564453 173.9771881103516 84.78632354736328 C 182.4914245605469 88.31305694580078 190.0601806640625 93.40171051025391 196.4733428955078 99.91105651855469 C 199.5556488037109 103.0396347045898 202.3496551513672 106.489013671875 204.7777252197266 110.1633224487305 C 207.1827239990234 113.8027496337891 209.2498474121094 117.6945571899414 210.9216461181641 121.7306289672852 C 212.5934906005859 125.7667846679688 213.8836822509766 129.9803619384766 214.7565307617188 134.2543182373047 C 215.6377258300781 138.5693664550781 216.1011047363281 142.9840545654297 216.1338043212891 147.3757934570312 C 216.2017669677734 156.5132904052734 214.4480285644531 165.4632873535156 210.9213409423828 173.9771728515625 C 205.6529235839844 186.6966400146484 196.8057250976562 197.3942413330078 185.3361053466797 204.9135894775391 C 179.8080291748047 208.5377502441406 173.7920379638672 211.3406677246094 167.4551849365234 213.2444763183594 C 161.0707244873047 215.1626739501953 154.4670715332031 216.1354827880859 147.8276824951172 216.1359405517578 C 138.8655700683594 216.1359405517578 130.0851898193359 214.3814849853516 121.7304153442383 210.9213256835938 C 113.2164535522461 207.3948211669922 105.6478424072266 202.3062896728516 99.23480224609375 195.7970581054688 C 96.15253448486328 192.6685485839844 93.35857391357422 189.2192077636719 90.93049621582031 185.5449371337891 C 88.52557373046875 181.9055938720703 86.45845794677734 178.0138244628906 84.78660583496094 173.9776763916016 C 83.11483764648438 169.9414825439453 81.82456970214844 165.7279052734375 80.95172119140625 161.4539031982422 C 80.07049560546875 157.1389465332031 79.60707092285156 152.7241668701172 79.5743408203125 148.3323669433594 C 79.5062255859375 139.19482421875 81.25980377197266 130.24462890625 84.78630065917969 121.7304382324219 C 90.05491638183594 109.0112457275391 98.90245819091797 98.31382751464844 110.3724136352539 90.79463195800781 C 115.9004974365234 87.17063140869141 121.9166107177734 84.36779022216797 128.2536926269531 82.46394348144531 C 134.63818359375 80.54582214355469 141.2432250976562 79.57297515869141 147.8853454589844 79.57244110107422 L 147.8853454589844 79.57144165039062 M 147.8096923828125 274.3878784179688 C 141.4421081542969 274.387939453125 135.0193023681641 273.8966674804688 128.7196044921875 272.9276733398438 L 117.5513381958008 271.2097778320312 L 120.6143035888672 260.3332214355469 C 121.7973022460938 256.1325073242188 121.3985290527344 251.6359405517578 119.4914932250977 247.6718597412109 C 118.5508804321289 245.7165222167969 117.2851104736328 243.9691314697266 115.7291488647461 242.4779357910156 C 114.1208038330078 240.9365234375 112.247917175293 239.7171783447266 110.1624908447266 238.8537902832031 C 108.0743026733398 237.9884338378906 105.8877258300781 237.5263671875 103.6603393554688 237.4790496826172 C 103.6463928222656 237.4790344238281 103.6322021484375 237.4790191650391 103.6182861328125 237.4790191650391 C 101.2315216064453 237.4790191650391 99.24166870117188 237.821044921875 97.32564544677734 238.4918670654297 C 93.17680358886719 239.9450225830078 89.71507263183594 242.8430633544922 87.57937622070312 246.6517486572266 L 82.05349731445312 256.5061645507812 L 72.94306945800781 249.8244476318359 C 62.66022491455078 242.2828979492188 53.60318756103516 233.237060546875 46.02349472045898 222.9381256103516 L 38.43191528320312 212.6230926513672 L 50.28014755249023 207.7597045898438 C 51.35380172729492 207.3190155029297 52.39022445678711 206.7728576660156 53.36083984375 206.1353302001953 C 54.3332633972168 205.4964447021484 55.24734115600586 204.759521484375 56.07661056518555 203.9452819824219 C 56.91953277587891 203.1179351806641 57.68149566650391 202.2040557861328 58.34280014038086 201.2276306152344 C 59.02568817138672 200.2198181152344 59.61130142211914 199.1306762695312 60.08457183837891 197.9889068603516 C 61.01545715332031 195.7407836914062 61.47907257080078 193.3811645507812 61.46118545532227 190.9788665771484 C 61.45253372192383 189.8214416503906 61.33030319213867 188.6584777832031 61.09818649291992 187.5226745605469 C 60.86711120605469 186.3917846679688 60.52526473999023 185.2762451171875 60.08264923095703 184.2068176269531 C 59.64179992675781 183.1428985595703 59.09560775756836 182.1141662597656 58.46026229858398 181.1532897949219 C 57.81810760498047 180.1817474365234 57.08261108398438 179.2724761962891 56.27195739746094 178.44970703125 C 54.58603286743164 176.7384338378906 52.58972549438477 175.3979339599609 50.3378791809082 174.4649353027344 C 49.20026397705078 173.9934387207031 48.01710891723633 173.6378631591797 46.81995391845703 173.4075622558594 C 45.71330261230469 173.1945953369141 44.57891845703125 173.0870513916016 43.44780349731445 173.0870513916016 C 42.13407135009766 173.0986328125 40.9659538269043 173.2239074707031 39.82611083984375 173.4599456787109 C 38.68988037109375 173.6952056884766 37.57180023193359 174.0411682128906 36.50276184082031 174.4884338378906 L 24.68345642089844 179.4336395263672 L 22.7567253112793 166.7672119140625 C 20.83391761779785 154.1267852783203 20.84172439575195 141.3259429931641 22.77987861633301 128.7202911376953 L 24.49711036682129 117.5513610839844 L 35.37426376342773 120.6142883300781 C 36.94814682006836 121.0574798583984 38.57572555541992 121.2822113037109 40.2118034362793 121.2822113037109 C 42.89572525024414 121.2822113037109 45.60153198242188 120.6629791259766 48.03680038452148 119.4914779663086 C 49.9909553527832 118.5511322021484 51.73849487304688 117.2850952148438 53.22987747192383 115.7290191650391 C 54.7707633972168 114.121208190918 55.99084091186523 112.2472457885742 56.85603332519531 110.1594390869141 C 57.71976470947266 108.0737075805664 58.18214797973633 105.8862838745117 58.2294921875 103.6601333618164 C 58.27510833740234 101.5064392089844 57.93441772460938 99.37605285644531 57.2169189453125 97.3289794921875 C 55.76245498657227 93.17636108398438 52.86464691162109 89.71478271484375 49.05653381347656 87.57975006103516 L 39.20037841796875 82.05386352539062 L 45.8835334777832 72.94259643554688 C 53.42718505859375 62.65817260742188 62.47322463989258 53.60097885131836 72.77037811279297 46.0225944519043 L 83.08737945556641 38.42959594726562 L 87.94949340820312 50.28094100952148 C 88.38980102539062 51.35420989990234 88.93568420410156 52.39032363891602 89.57307434082031 53.360595703125 C 90.21241760253906 54.33378601074219 90.94995880126953 55.24863433837891 91.76502990722656 56.07940292358398 C 92.58872222900391 56.9179801940918 93.50411224365234 57.68105697631836 94.48191833496094 58.34347915649414 C 95.48868560791016 59.02567291259766 96.57776641845703 59.61128616333008 97.71980285644531 60.08467102050781 C 99.9254150390625 60.99790191650391 102.2395706176758 61.46170806884766 104.5945358276367 61.46170806884766 C 105.8864974975586 61.45255661010742 107.049072265625 61.33032608032227 108.184684753418 61.09820938110352 C 109.3165740966797 60.86709594726562 110.4311447143555 60.52563095092773 111.4989929199219 60.08343887329102 C 112.5650329589844 59.64194107055664 113.5944976806641 59.09494018554688 114.5587615966797 58.45793914794922 C 115.5255737304688 57.81893920898438 116.4345321655273 57.08320999145508 117.258186340332 56.27170944213867 C 118.9701843261719 54.58451843261719 120.3113784790039 52.58778762817383 121.2435684204102 50.33786392211914 C 121.7150726318359 49.19901657104492 122.0711898803711 48.01459503173828 122.3009185791016 46.82013320922852 C 122.5237274169922 45.66232681274414 122.6308822631836 44.47697830200195 122.6199188232422 43.29636383056641 C 122.6094970703125 42.13301849365234 122.4838409423828 40.96493911743164 122.2475738525391 39.82124710083008 C 122.0136871337891 38.69174957275391 121.6673049926758 37.5738639831543 121.2192611694336 36.50320816040039 L 116.2733001708984 24.68355560302734 L 128.9403381347656 22.75674819946289 C 135.2051086425781 21.80378723144531 141.5842590332031 21.32059478759766 147.9006500244141 21.32059478759766 C 154.2678833007812 21.32059478759766 160.6898040771484 21.81155586242676 166.9880676269531 22.77982521057129 L 178.1573333740234 24.49694061279297 L 175.0941925048828 35.37436294555664 C 173.9108734130859 39.57624816894531 174.3093719482422 44.07228469848633 176.2162322998047 48.03421020507812 C 177.1580657958984 49.99209594726562 178.4234619140625 51.73909378051758 179.9781036376953 53.22855758666992 C 181.5871887207031 54.77117156982422 183.4603729248047 55.99082565307617 185.5481872558594 56.85601806640625 C 187.6327209472656 57.71901702880859 189.8203735351562 58.18124771118164 192.0473785400391 58.22855758666992 C 192.0620880126953 58.22858047485352 192.0768432617188 58.22859573364258 192.0915069580078 58.22859573364258 C 194.4811096191406 58.22859573364258 196.4678192138672 57.88678741455078 198.3804931640625 57.21659469604492 C 202.5321044921875 55.76224899291992 205.9933776855469 52.86470794677734 208.1273803710938 49.05747985839844 L 213.6526031494141 39.20013427734375 L 222.7647247314453 45.88328552246094 C 233.0481872558594 53.42555618286133 242.1054992675781 62.47167205810547 249.6850280761719 72.77040100097656 L 257.2779846191406 83.08732604980469 L 245.4267272949219 87.94947814941406 C 244.3535003662109 88.38978576660156 243.3187561035156 88.93474578857422 242.3513793945312 89.57078552246094 C 241.374755859375 90.21240234375 240.4599609375 90.94990539550781 239.6292572021484 91.76497650146484 C 238.7887268066406 92.58998107910156 238.0262603759766 93.50455474853516 237.3640747070312 94.4820556640625 C 236.6818084716797 95.48974609375 236.0962677001953 96.57867431640625 235.62548828125 97.71578979492188 C 234.6927947998047 99.96705627441406 234.2294616699219 102.326057434082 234.2473449707031 104.7297058105469 C 234.2559967041016 105.8865585327148 234.3782196044922 107.0490951538086 234.6103057861328 108.1845550537109 C 234.8414916992188 109.3168258666992 235.1828765869141 110.4312515258789 235.6250762939453 111.4989776611328 C 236.0670013427734 112.5660552978516 236.6129608154297 113.594482421875 237.2482299804688 114.5551300048828 C 237.8893432617188 115.5260543823242 238.6245269775391 116.4337463378906 239.4368438720703 117.2582092285156 C 241.1238403320312 118.9705963134766 243.1199188232422 120.3114013671875 245.3698425292969 121.2436294555664 C 246.5085754394531 121.7148284912109 247.6939544677734 122.071174621582 248.8885345458984 122.3009414672852 C 249.9918823242188 122.5127105712891 251.1241149902344 122.6206741333008 252.2498016357422 122.6206741333008 C 253.5745391845703 122.6095199584961 254.7403717041016 122.484130859375 255.8803405761719 122.2479019165039 C 257.01904296875 122.0127487182617 258.1354675292969 121.6669769287109 259.2052307128906 121.2192840576172 L 271.0249633789062 116.2731704711914 L 272.9518127441406 128.9403228759766 C 274.8746032714844 141.5807495117188 274.8667907714844 154.3816375732422 272.9286499023438 166.9873657226562 L 271.2117004394531 178.1546325683594 L 260.3357238769531 175.09375 C 258.760986328125 174.6505889892578 257.1328430175781 174.4258575439453 255.4964904785156 174.4258575439453 C 252.8125305175781 174.4258575439453 250.1071929931641 175.0450592041016 247.6729583740234 176.2164764404297 C 245.7154541015625 177.1581268310547 243.9680786132812 178.4235992431641 242.4779205322266 179.9784393310547 C 240.9368743896484 181.5870208740234 239.7169952392578 183.4606018066406 238.8534240722656 185.5459747314453 C 237.9888458251953 187.6342468261719 237.5263366699219 189.8218688964844 237.4790649414062 192.04736328125 C 237.4334106445312 194.201171875 237.7741546630859 196.3328704833984 238.4918823242188 198.3829040527344 C 239.9452667236328 202.5317535400391 242.8429565429688 205.9930877685547 246.6506805419922 208.1276397705078 L 256.5065307617188 213.6527404785156 L 249.8247680664062 222.7642059326172 C 242.28369140625 233.04736328125 233.2377319335938 242.1048278808594 222.9381866455078 249.6850128173828 L 212.6214904785156 257.27783203125 L 207.7591857910156 245.4270172119141 C 207.3188018798828 244.3537139892578 206.7729187011719 243.3174743652344 206.1354217529297 242.3469390869141 C 205.4969940185547 241.3757934570312 204.7596435546875 240.4613189697266 203.9452209472656 239.6318664550781 C 203.1175689697266 238.7881011962891 202.2029571533203 238.0259857177734 201.2238006591797 237.3621673583984 C 200.2200317382812 236.6820983886719 199.1320648193359 236.0972137451172 197.9926452636719 235.6254730224609 C 195.7837982177734 234.7103271484375 193.470458984375 234.246826171875 191.1144561767578 234.246826171875 C 189.8214569091797 234.2560119628906 188.6586151123047 234.3782043457031 187.5229187011719 234.6102905273438 C 186.3914947509766 234.8414764404297 185.2775726318359 235.1825561523438 184.2115325927734 235.6242828369141 C 183.141845703125 236.0672912597656 182.1123352050781 236.6138305664062 181.1497650146484 237.2497100830078 C 180.1837615966797 237.8882141113281 179.2738037109375 238.6252136230469 178.4470672607422 239.4391784667969 C 176.7379913330078 241.1228942871094 175.3974914550781 243.1189422607422 174.4649200439453 245.3697509765625 C 173.9934539794922 246.5091705322266 173.6371459960938 247.6941375732422 173.4076538085938 248.8874053955078 C 173.1847686767578 250.0460968017578 173.0773010253906 251.2335968017578 173.0877227783203 252.4170227050781 C 173.0986480712891 253.5728302001953 173.2243804931641 254.7418670654297 173.4606475830078 255.8849334716797 C 173.6953735351562 257.0186767578125 174.0413360595703 258.1369934082031 174.488525390625 259.205810546875 L 179.4336547851562 271.0250854492188 L 166.7672576904297 272.9518127441406 C 160.5035400390625 273.9046325683594 154.1253051757812 274.3877868652344 147.8096923828125 274.3878784179688 Z M 147.8865356445312 89.57144165039062 C 142.2181091308594 89.57285308837891 136.5807800292969 90.40377044677734 131.1309509277344 92.04105377197266 C 125.7167282104492 93.66767120361328 120.5771484375 96.06205749511719 115.8549575805664 99.15774536132812 C 106.0708389282227 105.5717849731445 98.52222442626953 114.7005920410156 94.02507019042969 125.5573654174805 C 91.01353454589844 132.8282165527344 89.5159912109375 140.4658203125 89.57407379150391 148.2578277587891 C 89.60199737548828 152.0040130615234 89.99745941162109 155.7705993652344 90.74949645996094 159.4529418945312 C 91.49495697021484 163.1032409667969 92.59714508056641 166.7025909423828 94.02545928955078 170.1509857177734 C 95.45365142822266 173.5988616943359 97.21933746337891 176.9233245849609 99.27345275878906 180.0317840576172 C 101.345573425293 183.1674041748047 103.7293014526367 186.1103668212891 106.3582992553711 188.7788238525391 C 111.8269577026367 194.3295135498047 118.286376953125 198.6709442138672 125.5571441650391 201.6824798583984 C 132.6923065185547 204.6375122070312 140.185302734375 206.1359405517578 147.8276824951172 206.1359405517578 C 153.4914245605469 206.1355590820312 159.1271820068359 205.3050231933594 164.5777587890625 203.6674041748047 C 169.9917602539062 202.0408325195312 175.1311798095703 199.6464080810547 179.8534240722656 196.5505981445312 C 189.6371154785156 190.136474609375 197.1855010986328 181.0074768066406 201.6824951171875 170.1504364013672 C 204.6943359375 162.8794860839844 206.1920318603516 155.2420959472656 206.1340637207031 147.4501647949219 C 206.1061859130859 143.7041778564453 205.7107696533203 139.9376373291016 204.9587707519531 136.2551727294922 C 204.2132263183594 132.6046752929688 203.1110687255859 129.0054016113281 201.6828765869141 125.5575180053711 C 200.2546081542969 122.1094055175781 198.4888763427734 118.7849426269531 196.4347686767578 115.676513671875 C 194.3626403808594 112.5408630371094 191.9789123535156 109.5978240966797 189.3498077392578 106.9292449951172 C 183.8810729980469 101.3785171508789 177.4214172363281 97.03690338134766 170.1503448486328 94.02509307861328 C 163.0172271728516 91.070556640625 155.5265655517578 89.57244110107422 147.8865356445312 89.57244110107422 L 147.8865356445312 89.57144165039062 Z"/></g></svg>