<svg xmlns="http://www.w3.org/2000/svg" viewBox="889 42 753 753"><defs><style>.a{fill:#a1eafc;}.b{fill:#c7c7c7;}.c,.d{fill:#fff;}.c{stroke:#c7c7c7;stroke-width:10px;}.e{fill:#585858;}.f{fill:#7c7c7c;}.g{fill:#609;font-size:44px;font-family:Futura-Bold, Futura;font-weight:700;letter-spacing:-0.1em;}.h{letter-spacing:-0.16em;}.i,.j{fill:#f60;}.i{font-size:48px;letter-spacing:-0.125em;}.k,.m{fill:none;}.k{stroke:#fff;stroke-width:90px;}.l{stroke:none;}</style></defs><g transform="translate(-2 -86)"><g transform="translate(-858.473 358.871)"><rect class="a" width="114.135" height="83.5" rx="9" transform="translate(2062.365 88.716)"/><rect class="b" width="77.23" height="102.784" rx="9" transform="translate(2099.271 69.243)"/><g class="c" transform="translate(2185.946 -20)"><rect class="l" width="247.541" height="247.271" rx="9"/><rect class="m" x="5" y="5" width="237.541" height="237.271" rx="4"/></g><path class="d" d="M9,0H190.5a0,0,0,0,1,0,0V116.135a9,9,0,0,1-9,9H9a9,9,0,0,1-9-9V9A9,9,0,0,1,9,0Z" transform="translate(1986 150.054)"/><path class="b" d="M0,0H466.947a9,9,0,0,1,9,9V30.473a9,9,0,0,1-9,9H9a9,9,0,0,1-9-9V0A0,0,0,0,1,0,0Z" transform="translate(1986 235.717)"/><circle class="e" cx="41.189" cy="41.189" r="41.189" transform="translate(2033.892 252.879)"/><circle class="e" cx="41.189" cy="41.189" r="41.189" transform="translate(2351.555 252.879)"/><circle class="f" cx="27.189" cy="27.189" r="27.189" transform="translate(2047.892 266.879)"/><circle class="f" cx="27.189" cy="27.189" r="27.189" transform="translate(2365.892 266.879)"/><path class="d" d="M9,0H29a0,0,0,0,1,0,0V81a0,0,0,0,1,0,0H0a0,0,0,0,1,0,0V9A9,9,0,0,1,9,0Z" transform="translate(2099.473 69.129)"/></g><text class="g" transform="translate(1167 574)"><tspan x="0" y="0">Fe</tspan><tspan class="h" y="0">d</tspan><tspan class="i" y="0">E</tspan><tspan class="j" y="0">x</tspan></text><g class="k" transform="translate(981 218)"><circle class="l" cx="286.5" cy="286.5" r="286.5"/><circle class="m" cx="286.5" cy="286.5" r="331.5"/></g></g></svg>